<svg version="1" xmlns="http://www.w3.org/2000/svg" width="658.667" height="658.667" viewBox="0 0 494.000000 494.000000"><path d="M226.5.6C165.2 7 114.1 30.7 73 71.9 52.1 92.8 38.5 112 25.4 138.5 7.8 174.4.5 205.9.5 246.5c0 22.2.9 32.4 4.6 50.3 19.4 95.6 96.5 172.7 192.1 192.1 17.7 3.6 28.1 4.6 49.8 4.6 42.5 0 75.4-7.9 113-27 22.9-11.7 42.3-25.9 61.5-45 44.7-44.4 69.7-101.8 72.2-165.5C498.5 130 408.5 21.8 283 2.5 272.9.9 235.4-.3 226.5.6zm-119 108.8c5.3 1.6 17.3 6.7 29.5 12.7 19.2 9.4 25.2 12.7 45.5 24.3 4.4 2.5 8.6 4.6 9.5 4.6.8 0 2.4-1.6 3.4-3.5 2.6-4.8 17.5-18.9 26.1-24.8 9.1-6.1 15.2-7.8 29-7.8 9.3-.1 12.6.4 21.5 2.9 5.8 1.7 12.4 3.5 14.8 4.1 4.6 1.3 7.7 4.9 6.8 7.9-.4 1-2.7 3.4-5.2 5.2-2.5 1.8-4.2 3.6-3.7 3.9.4.4 8.2 2.4 17.3 4.5 9.1 2.1 18.4 4.5 20.8 5.3 4.8 1.7 6.6 4.7 6 10.1-.2 1.8-.2 3.1.1 2.9.4-.1 3.8-1.8 7.6-3.7 6.7-3.4 7.5-3.5 20-3.8l13-.4 8.2 5.6c8.8 6 17.2 14.1 17.3 16.7 0 1.9-3.6 5.9-5.5 5.9-.8 0-4.6-1.2-8.6-2.6-7.5-2.7-10.7-2.8-19.1-.4-4 1.1-8.8 6.8-8.8 10.2 0 2.6 1.2 2.3 11.2-2.7s15.4-5.7 21.4-2.9c4.6 2.2 4.6 6 0 12.3-8.8 12-10.2 17.9-7.9 33 .8 5.3.8 8 .1 9.7-1.3 2.9-.3 4.2 2 2.8 2.2-1.4 14.5-20 15.7-23.9.8-2.4 1.7-3.1 4.2-3.3 2.8-.3 3.4.1 5.1 3.5 4.3 8.5 5.3 13.6 5.5 28.4.2 12.8 0 14.9-1.9 18.9-2.4 5.2-12.4 13.8-19.5 16.8l-4.4 1.9 6 3.1c6.8 3.4 9.7 6.3 14.4 14.1l3.3 5.4-2.1 7.1c-1.2 3.9-2.1 8.7-2.1 10.7 0 8.9-6.4 9.8-18.1 2.6-4.2-2.6-9.5-6.6-11.8-8.8-4.6-4.6-5.3-3.8-1.7 1.9 4.3 6.7 9.9 10.8 25.3 18.8 8.4 4.4 15.1 8.3 15 8.8-1.6 4.8-69.3 16.3-160.2 27.1-18.2 2.1-28.7 3-30.2 2.4-2.2-.8-2.3-1.4-2.3-9.7 0-28.4 6.9-74.1 13-86.2 2.3-4.5 3-7.3 3-11.5 0-5.3-.1-5.5-2.7-5.5-4.5.1-13 4.1-24.8 11.6-16 10.3-19.1 12-29.5 16-12.8 5-17.6 5.3-24.4 2-6.8-3.3-14.1-11.1-15.6-16.4-.8-3.3-.7-5.8.9-13.1 1.1-5 2.9-11.2 4.1-13.8 2.7-6.1 15.4-21.8 22.6-27.9 8.5-7.3 11.9-11.1 14-15.6l1.8-4.1-3.1-2.6c-1.7-1.4-8.2-5.3-14.5-8.5-6.2-3.3-18.2-10.6-26.6-16.3-8.4-5.7-15.7-10.3-16.1-10.3-1.5 0-24.1-17.8-33.6-26.6-10-9.1-17.5-19-17.5-22.9 0-8.9 16.9-11.7 36.5-6.1z"/></svg>